<svg xmlns="http://www.w3.org/2000/svg" width="64" height="64" id="cookie"><g fill="none" fill-rule="evenodd"><path fill="#B4814A" d="M60.788 34.182c-3.677 0-6.657-3.001-6.657-6.704 0-1.167.296-2.264.817-3.219a8.285 8.285 0 0 1-2.482.38c-4.595 0-8.32-3.753-8.32-8.38 0-.172.015-.34.025-.508a8.24 8.24 0 0 1-2.828.507c-4.594 0-8.32-3.752-8.32-8.38 0-.953.167-1.864.46-2.715a7.201 7.201 0 0 1-1.533.168c-2.724 0-5.095-1.53-6.31-3.782C11.87 4.495 1.537 16.809 1.537 31.555c0 16.946 13.64 30.683 30.465 30.683 16.012 0 29.129-12.445 30.361-28.252a6.666 6.666 0 0 1-1.575.196"></path><path fill="#513A2B" d="M33.483 37.703c0 3.965-3.19 7.178-7.127 7.178s-7.128-3.213-7.128-7.178 3.191-7.179 7.128-7.179c3.937 0 7.127 3.214 7.127 7.179"></path><path fill="#2E2E30" d="M26.356 32.072c-3.083 0-5.59 2.526-5.59 5.63s2.507 5.63 5.59 5.63c3.083 0 5.59-2.526 5.59-5.63s-2.507-5.63-5.59-5.63m0 14.357c-4.777 0-8.665-3.914-8.665-8.727 0-4.812 3.888-8.726 8.665-8.726 4.777 0 8.665 3.914 8.665 8.726 0 4.813-3.888 8.727-8.665 8.727"></path><path fill="#513A2B" d="M1.54 31.682c.86.691 1.933 1.122 3.118 1.122 2.774 0 5.021-2.265 5.021-5.058 0-2.794-2.247-5.057-5.02-5.057a4.97 4.97 0 0 0-1.935.39 30.866 30.866 0 0 0-1.187 8.477c0 .042.003.083.003.126M26.839 15.203c0 2.174-1.75 3.936-3.908 3.936-2.159 0-3.908-1.762-3.908-3.936s1.75-3.936 3.908-3.936 3.908 1.762 3.908 3.936"></path><path fill="#2E2E30" d="M22.931 12.815a2.382 2.382 0 0 0-2.37 2.388 2.382 2.382 0 0 0 2.37 2.387 2.382 2.382 0 0 0 2.37-2.387 2.382 2.382 0 0 0-2.37-2.388m0 7.872c-3.003 0-5.445-2.46-5.445-5.484 0-3.025 2.442-5.485 5.445-5.485s5.445 2.46 5.445 5.485c0 3.024-2.442 5.484-5.445 5.484"></path><path fill="#513A2B" d="M51.51 41.944c0 2.174-1.749 3.936-3.907 3.936-2.159 0-3.908-1.762-3.908-3.936 0-2.173 1.75-3.936 3.908-3.936s3.908 1.763 3.908 3.936"></path><path fill="#2E2E30" d="M47.603 39.557a2.382 2.382 0 0 0-2.37 2.387 2.382 2.382 0 0 0 2.37 2.388 2.382 2.382 0 0 0 2.37-2.388 2.382 2.382 0 0 0-2.37-2.387m0 7.872c-3.003 0-5.446-2.46-5.446-5.485 0-3.024 2.443-5.484 5.446-5.484 3.003 0 5.444 2.46 5.444 5.484 0 3.025-2.441 5.485-5.444 5.485"></path><path fill="#513A2B" d="M32.002 62.238c.884 0 1.759-.045 2.625-.119.049-.31.083-.625.083-.95 0-3.245-2.613-5.875-5.835-5.875-3.128 0-5.674 2.481-5.82 5.597a30.25 30.25 0 0 0 8.947 1.347"></path><path fill="#010202" d="M60.788 34.182c-.374 0-.738-.038-1.095-.098-4.976 12.274-16.933 20.928-30.91 20.928-9.708 0-18.447-4.176-24.549-10.838 4.779 10.65 15.41 18.064 27.768 18.064 16.012 0 29.129-12.445 30.361-28.252a6.666 6.666 0 0 1-1.575.196" opacity=".2"></path><path fill="#2E2E30" d="M36.202 60.374c-.395-3.72-3.528-6.629-7.327-6.629-3.256 0-6.023 2.126-6.991 5.102C11.682 54.997 4.2 45.505 3.196 34.16c.478.113.964.19 1.463.19 3.616 0 6.558-2.962 6.558-6.605 0-3.519-2.747-6.395-6.193-6.587C8.348 12.487 15.678 5.646 24.93 3.303a8.693 8.693 0 0 0 6.607 3.567 10.05 10.05 0 0 0-.052 1.007c0 5.475 4.423 9.93 9.859 9.93.458 0 .915-.034 1.369-.1.71 4.864 4.93 8.565 9.982 8.477-.069.428-.103.86-.103 1.294 0 4.495 3.589 8.163 8.032 8.251-1.826 12.739-11.93 22.778-24.422 24.645m-4.2.315c-.561 0-1.12-.02-1.677-.052-.173-.01-.343-.027-.515-.04a29.165 29.165 0 0 1-1.743-.184c-.376-.052-.749-.112-1.122-.179-.181-.032-.363-.062-.543-.097a29.22 29.22 0 0 1-1.363-.306c-.075-.019-.152-.033-.228-.053a4.287 4.287 0 0 1 4.064-2.936c2.199 0 4.017 1.672 4.267 3.82-.38.016-.759.027-1.14.027M4.658 24.236c1.92 0 3.484 1.574 3.484 3.51 0 1.934-1.563 3.509-3.484 3.509a3.326 3.326 0 0 1-1.555-.387c.014-.586.027-1.172.075-1.75.005-.059.014-.118.02-.177a28.62 28.62 0 0 1 .264-2.062l.068-.413c.13-.73.282-1.452.466-2.165.217-.042.438-.065.662-.065m59.235 9.87c.04-.494-.16-.978-.536-1.3-.373-.32-.88-.44-1.359-.325a5.111 5.111 0 0 1-1.211.153c-2.824 0-5.12-2.313-5.12-5.156 0-.864.216-1.72.627-2.474a1.556 1.556 0 0 0-.157-1.725 1.531 1.531 0 0 0-1.648-.498 6.744 6.744 0 0 1-2.024.31c-3.74 0-6.783-3.066-6.783-6.833 0-.093.007-.185.013-.276l.009-.139a1.55 1.55 0 0 0-.614-1.333 1.531 1.531 0 0 0-1.443-.215 6.706 6.706 0 0 1-2.304.415c-3.74 0-6.785-3.065-6.785-6.833 0-.74.127-1.483.377-2.209a1.562 1.562 0 0 0-.304-1.534 1.533 1.533 0 0 0-1.478-.485c-2.514.554-4.984-.656-6.162-2.84a1.533 1.533 0 0 0-1.67-.775C13.68 2.524 4.579 11.386 1.312 22.494c-.021.052-.049.103-.065.158-.044.155-.074.313-.116.468a32.021 32.021 0 0 0-.38 1.53c-.044.207-.081.413-.122.62a31.48 31.48 0 0 0-.259 1.466c-.023.158-.05.316-.072.474-.085.627-.15 1.26-.198 1.895-.012.15-.02.3-.03.45-.042.663-.07 1.329-.07 2l.003.133v.004C.064 46.102 9.56 58.312 22.58 62.36c.008.003.015.009.023.012.094.029.19.047.283.075.566.17 1.14.322 1.717.46.182.044.363.088.544.128.679.15 1.364.284 2.056.389.066.01.13.015.196.025.637.093 1.28.163 1.928.217.182.015.36.03.542.042.705.046 1.416.08 2.132.08.457 0 .92-.013 1.394-.035.349-.015.693-.042 1.038-.069.11-.008.214-.011.325-.022l.013-.003c15.351-1.354 27.9-13.844 29.123-29.551"></path></g></svg>